<svg xmlns="http://www.w3.org/2000/svg" viewBox="0 0 470.04 312.59"><defs><style>.cls-1{fill:#666;opacity:0.75;}.cls-2{fill:#4d4d4d;}.cls-3,.cls-7{fill:#f2f2f2;}.cls-4{fill:#0071bc;}.cls-4,.cls-5,.cls-6{stroke:#000;stroke-miterlimit:10;stroke-width:3px;}.cls-5{fill:#29abe2;}.cls-6{fill:none;}.cls-7{font-size:40px;font-family:FreestyleScript-Regular, Freestyle Script;}</style></defs><title>stegemanfietst_logo_wit_</title><g id="Layer_2" data-name="Layer 2"><g id="Layer_1-2" data-name="Layer 1"><path class="cls-1" d="M459,248.77c-2.35,19.76-14.73,33.3-29.27,44.78a86.77,86.77,0,0,1-52.47,19V295.17c29.56-.28,57.41-14.09,76-39.14C455.1,253.56,457.06,251.19,459,248.77Z"/><path class="cls-1" d="M174.94,249.44a90.76,90.76,0,0,1-13.51,17.23c-26.18,26.22-57.95,32.25-93.17,25.71.83,4.9,5.1,5.32,8.66,6.72,16,6.29,32.59,7.75,49.55,7,23.23-1.05,41.92-9.91,51.92-31.89,5.55-12.19,10.63-24.56,13.84-37.42C186.53,241.05,180.69,245.2,174.94,249.44Z"/><path class="cls-1" d="M92,120.4c.53,8.83-3.41,14.34-11.4,18.45C68.48,145.07,56,151.09,46.79,161.6,25.4,186,25,216.13,52.52,236.79c13.07,9.81,28,16.37,44.14,17.08,21.56.94,44.07,4.46,63.09-10.81.7-.56,2.27,0,3.43,0-18.5,31-46.69,41.69-81.3,38.85A78.11,78.11,0,0,1,33,258.68a67.79,67.79,0,0,1-18.39-35.19,106.29,106.29,0,0,0,0-44.5C23.89,141.66,60.88,119.4,92,120.4Z"/><path class="cls-1" d="M398.66,280.06a81.41,81.41,0,0,1-21.43,3.57V260.92c26.49-1.77,50.86-17.4,65.88-40,1.73-2.61,3.12-5.54,5.23-7.79,6.49-6.91,6.64-14.06,3-22.58-3.14-7.33-6.78-15.26-1.48-23.4C473.36,209.13,446.78,265.41,398.66,280.06Z"/><polygon points="258.98 179.05 239.51 209.33 238.67 210.64 218.25 210.64 258.98 179.05"/><path class="cls-2" d="M146.94,72.38,100.47,90.77l-60.77-22S5,35.11,54,18.26l56.68,22Z"/><path class="cls-3" d="M376.72,111.32a92,92,0,0,0-20.39,2.28L337,57.62l-2.48-7.17L321.31,12h55.35L372.53,0H256.06l4.13,12h48.42l13.81,40L181.22,70.45l-8.15-18.11h23.4v-.05l-4.12-11.95H131.11l4.14,12h24.66l10.84,24.09L82.17,210.64h45.36v-12H104.47l76.6-116.07L318.23,64.69l-86.11,134H182.83l5.4,12h30l-73.54,57.05-.9.7-.54.44a81.33,81.33,0,1,1-50-145.51v-1.13l-4.83-10.75A93.32,93.32,0,1,0,150.61,278.3l.1-.08,87.11-67.58,1.69-1.31,76.61-59.43.26.23a81.3,81.3,0,0,1,32.34-21.81L374.12,202l11.34-3.91L360.27,125a80.55,80.55,0,0,1,16.45-1.69A81.32,81.32,0,0,1,377.15,286l2.93,6.51,2.4,5.32a93.32,93.32,0,0,0-5.76-186.46Zm-67.44,28.83-.06-.08-50.24,39L328.77,70.47l16,46.5A93.42,93.42,0,0,0,309.28,140.15Z"/><path d="M144.71,267.69l-.9.7.89-.71Z"/><path class="cls-3" d="M100.56,97.18,36.45,74l-.93-.89c-.7-.68-17.08-16.84-13.13-34.53,2.53-11.36,12.51-20.11,29.66-26l2.07-.71,58.73,22.75-4.34,11.19L53.92,24.66C42.26,29,35.6,34.55,34.11,41.17,32.18,49.71,39.25,59.55,43,63.64l57.33,20.71L144.73,66.8,149.14,78Z"/><path d="M143.26,268.82h0l.54-.44Z"/><polyline class="cls-4" points="56.51 174.85 59.89 233.94 77.25 257.84 110.39 258.12 131.11 242.52 136.8 174.85"/><path class="cls-4" d="M410.33,187.5l-3.85,47.74-16.4,12.86-26.26-.22-13.75-19.71-2.19-40a15.71,15.71,0,0,0,4.42.69h51.42a17.09,17.09,0,0,0,3.23-.31A16.45,16.45,0,0,0,410.33,187.5Z"/><path class="cls-5" d="M352.3,188.87h0Z"/><path class="cls-5" d="M407,188.57l-.14.31h-3.09A17.09,17.09,0,0,0,407,188.57Z"/><path class="cls-6" d="M406.69,155.09l-.88,0H406C406.23,155.07,406.46,155.07,406.69,155.09Z"/><path class="cls-5" d="M416.51,172c0,7-3.64,12.93-8.86,15.52a12.71,12.71,0,0,1-5.8,1.38H356.68a12.27,12.27,0,0,1-3.88-.69c-6.1-2.11-10.54-8.78-10.54-16.68,0-9.6,6.56-17.38,14.66-17.38h.23l44.54.95.74,0C410.26,155.44,416.51,162.87,416.51,172Z"/><path class="cls-5" d="M140.47,162.51c0,8.21-4.3,15.26-10.46,18.32a15.71,15.71,0,0,1-3.5,1.26,16.14,16.14,0,0,1-3.35.36H69.86a14.32,14.32,0,0,1-4.58-.81c-7.19-2.49-12.44-10.36-12.44-19.68,0-11.33,7.75-20.51,17.31-20.51h.27L123,142.56l.88,0C133.09,143,140.47,151.76,140.47,162.51Z"/><text class="cls-7" transform="translate(192.36 284.04) rotate(-37.8)">S</text><text class="cls-7" transform="translate(204.81 274.39) rotate(-37.8)">t</text><text class="cls-7" transform="matrix(0.79, -0.61, 0.61, 0.79, 212.52, 268.4)">e</text><text class="cls-7" transform="matrix(0.79, -0.61, 0.61, 0.79, 221.2, 261.67)">g</text><text class="cls-7" transform="matrix(0.79, -0.61, 0.61, 0.79, 230.85, 254.18)">e</text><text class="cls-7" transform="translate(239.51 247.46) rotate(-37.8)">m</text><text class="cls-7" transform="matrix(0.79, -0.61, 0.61, 0.79, 250.73, 238.76)">a</text><text class="cls-7" transform="matrix(0.79, -0.61, 0.61, 0.79, 258.9, 232.42)">n</text><text class="cls-7" transform="translate(267.05 226.1) rotate(-37.8)"> </text><text class="cls-7" transform="matrix(0.79, -0.61, 0.61, 0.79, 274.94, 219.98)">F</text><text class="cls-7" transform="translate(287.39 210.32) rotate(-37.8)">i</text><text class="cls-7" transform="translate(291.56 207.08) rotate(-37.8)">e</text><text class="cls-7" transform="matrix(0.79, -0.61, 0.61, 0.79, 300.22, 200.37)">t</text><text class="cls-7" transform="matrix(0.79, -0.61, 0.61, 0.79, 307.94, 194.38)">s</text><text class="cls-7" transform="translate(315.97 188.15) rotate(-37.8)">t</text></g></g></svg>